<svg width="788" height="545" xmlns="http://www.w3.org/2000/svg" xmlns:xlink="http://www.w3.org/1999/xlink" xml:space="preserve" overflow="hidden"><defs><clipPath id="clip0"><rect x="644" y="707" width="788" height="545"/></clipPath></defs><g clip-path="url(#clip0)" transform="translate(-644 -707)"><path d="M658 979.5C658 836.734 773.734 721 916.5 721 1059.27 721 1175 836.734 1175 979.5 1175 1122.27 1059.27 1238 916.5 1238 773.734 1238 658 1122.27 658 979.5Z" stroke="#000000" stroke-width="27.5" stroke-miterlimit="8" fill="none" fill-rule="evenodd"/><path d="M1004 937.5C1004 905.744 1029.74 880 1061.5 880 1093.26 880 1119 905.744 1119 937.5 1119 969.256 1093.26 995 1061.5 995 1029.74 995 1004 969.256 1004 937.5Z" stroke="#000000" stroke-width="27.5" stroke-miterlimit="8" fill="none" fill-rule="evenodd"/><path d="M946 1102C946 1069.97 971.744 1044 1003.5 1044 1035.26 1044 1061 1069.97 1061 1102 1061 1134.03 1035.26 1160 1003.5 1160 971.744 1160 946 1134.03 946 1102Z" stroke="#000000" stroke-width="27.5" stroke-miterlimit="8" fill="none" fill-rule="evenodd"/><path d="M774 1102C774 1069.97 799.968 1044 832 1044 864.033 1044 890 1069.97 890 1102 890 1134.03 864.033 1160 832 1160 799.968 1160 774 1134.03 774 1102Z" stroke="#000000" stroke-width="27.5" stroke-miterlimit="8" fill="none" fill-rule="evenodd"/><path d="M716 937.5C716 905.744 741.968 880 774 880 806.032 880 832 905.744 832 937.5 832 969.256 806.032 995 774 995 741.968 995 716 969.256 716 937.5Z" stroke="#000000" stroke-width="27.5" stroke-miterlimit="8" fill="none" fill-rule="evenodd"/><path d="M860 829.5C860 797.744 885.744 772 917.5 772 949.256 772 975 797.744 975 829.5 975 861.256 949.256 887 917.5 887 885.744 887 860 861.256 860 829.5Z" stroke="#000000" stroke-width="27.5" stroke-miterlimit="8" fill="none" fill-rule="evenodd"/><path d="M879 979C879 958.565 895.565 942 916 942 936.434 942 953 958.565 953 979 953 999.435 936.434 1016 916 1016 895.565 1016 879 999.435 879 979Z" stroke="#000000" stroke-width="27.5" stroke-miterlimit="8" fill="none" fill-rule="evenodd"/><path d="M1047 1201.86C1140.71 1234.26 1140.86 1240.29 1183.49 1231.11 1226.13 1221.93 1242.15 1182.07 1302.82 1162.28 1363.48 1142.49 1375.21 1195.55 1423 1234.84" stroke="#000000" stroke-width="27.5" stroke-miterlimit="8" fill="none" fill-rule="evenodd"/><path d="M980 1045C996.419 1065.43 996.49 1070.71 1001.32 1088.71 1006.16 1106.71 1005.62 1138.36 1009 1153" stroke="#000000" stroke-width="27.5" stroke-miterlimit="8" fill="none" fill-rule="evenodd"/></g></svg>